<svg width="14" height="14" viewBox="0 0 14 14" fill="none" xmlns="http://www.w3.org/2000/svg">
<g clip-path="url(#clip0_426_340)">
<path d="M12.8334 12.8333L11.6667 11.6667M6.70841 12.25C7.43616 12.25 8.15677 12.1067 8.82912 11.8282C9.50146 11.5497 10.1124 11.1415 10.627 10.6269C11.1416 10.1123 11.5498 9.50139 11.8282 8.82904C12.1067 8.1567 12.2501 7.43608 12.2501 6.70834C12.2501 5.9806 12.1067 5.25998 11.8282 4.58763C11.5498 3.91529 11.1416 3.30438 10.627 2.78979C10.1124 2.2752 9.50146 1.867 8.82912 1.58851C8.15677 1.31001 7.43616 1.16667 6.70841 1.16667C5.23867 1.16667 3.82913 1.75052 2.78986 2.78979C1.7506 3.82905 1.16675 5.2386 1.16675 6.70834C1.16675 8.17808 1.7506 9.58762 2.78986 10.6269C3.82913 11.6662 5.23867 12.25 6.70841 12.25Z" stroke="white" stroke-width="1.5" stroke-linecap="round" stroke-linejoin="round"/>
</g>
<defs>
<clipPath id="clip0_426_340">
<rect width="14" height="14" fill="white"/>
</clipPath>
</defs>
</svg>
