<svg width="16" height="16" viewBox="0 0 16 16" fill="none" xmlns="http://www.w3.org/2000/svg">
<path d="M6.85327 13.5H11.3333C13.1733 13.5 14.6666 12.0067 14.6666 10.1667V5.83333C14.6666 3.99333 13.1733 2.5 11.3333 2.5H6.85327C5.91327 2.5 5.01994 2.89333 4.3866 3.59333L2.03327 6.18C1.57975 6.67765 1.32837 7.3267 1.32837 8C1.32837 8.6733 1.57975 9.32235 2.03327 9.82L4.3866 12.4067C4.69827 12.7515 5.07889 13.027 5.50381 13.2153C5.92873 13.4037 6.38848 13.5007 6.85327 13.5Z" stroke="white" stroke-width="1.5" stroke-linecap="round" stroke-linejoin="round"/>
<path d="M10.6666 9.64667L7.37329 6.35333M7.37329 9.64667L10.6666 6.35333" stroke="white" stroke-width="1.5" stroke-linecap="round"/>
</svg>
